<?xml version="1.0" encoding="utf-8"?>
<!-- Generator: Adobe Illustrator 15.1.0, SVG Export Plug-In . SVG Version: 6.00 Build 0)  -->
<!DOCTYPE svg PUBLIC "-//W3C//DTD SVG 1.1//EN" "http://www.w3.org/Graphics/SVG/1.1/DTD/svg11.dtd">
<svg version="1.1" id="Layer_1" xmlns="http://www.w3.org/2000/svg" xmlns:xlink="http://www.w3.org/1999/xlink" x="0px" y="0px"
	 width="100px" height="100px" viewBox="0 0 100 100" enable-background="new 0 0 100 100" xml:space="preserve">
<g display="none">
	<g display="inline">
		<path d="M92.954,40.104l-6.702,3.931l-0.043,2.881l-8.847,10.198c-0.753,0.87-0.659,2.187,0.209,2.938
			c0.869,0.755,2.186,0.663,2.938-0.207l5.609-6.466l-0.136,9.462c0,1.11,0.757,2.043,1.78,2.316
			c-0.019,0.116-0.03,0.238-0.03,0.362v20.128l-2.825,0.671c-1.236,0-2.235,1-2.235,2.231c0,1.235,1.001,1.038,2.235,1.038h4.831
			c0.075,0.008,0.151,0.011,0.231,0.011c1.234,0,2.234-1,2.234-2.234V65.52c0-0.109-0.012-0.212-0.024-0.318
			c1.121-0.198,1.975-1.178,1.975-2.359l1.197-20.341C95.351,41.177,94.275,40.104,92.954,40.104z"/>
		<circle cx="89.967" cy="34.77" r="4.622"/>
	</g>
	<g display="inline">
		<path d="M15.006,86.317l-2.824-0.672V65.521c0-0.124-0.013-0.245-0.031-0.362c1.023-0.273,1.78-1.205,1.78-2.316l-0.136-9.462
			l-0.091-6.463l-0.042-2.881l-6.702-3.931c-1.323,0-2.397,1.073-2.397,2.398l1.197,20.341c0,1.181,0.854,2.159,1.975,2.358
			C7.72,65.308,7.71,65.411,7.71,65.52v21.846c0,1.235,0.998,2.234,2.234,2.234c0.078,0,0.153-0.003,0.229-0.011h4.832
			c1.236,0,2.235,0.197,2.235-1.038C17.241,87.319,16.241,86.317,15.006,86.317z"/>
		<circle cx="9.947" cy="34.77" r="4.622"/>
	</g>
	<path display="inline" d="M74.065,11.74H21.249c-1.542,0-2.79,1.249-2.79,2.789v32.247c0,1.542,1.248,2.791,2.79,2.791h24.813
		v13.126H46.06l-8.881,8.884c-0.324,0.323-0.324,0.845,0,1.169l0.169,0.169c0.325,0.324,0.849,0.324,1.172,0l7.54-7.539h0.001v7.071
		c0,0.768,0.624,1.394,1.395,1.394h0.4c0.771,0,1.396-0.626,1.396-1.394v-7.035l7.503,7.503c0.324,0.324,0.848,0.324,1.172,0
		l0.167-0.169c0.324-0.325,0.324-0.847,0-1.169l-8.845-8.903V49.567h24.814c1.542,0,2.791-1.249,2.791-2.791V14.529
		C76.855,12.989,75.607,11.74,74.065,11.74z M22.757,20.978h8.633c0.418,0,0.758,0.339,0.758,0.758c0,0.417-0.34,0.757-0.758,0.757
		h-8.633c-0.418,0-0.758-0.339-0.758-0.757C21.999,21.318,22.338,20.978,22.757,20.978z M32.148,44.4
		c-2.404,0-4.351-1.949-4.351-4.352c0-2.403,1.948-4.351,4.351-4.351v4.351h4.351C36.499,42.452,34.55,44.4,32.148,44.4z
		 M32.935,39.261v-3.159c1.745,0,3.16,1.414,3.16,3.159H32.935z M42.833,31.245H22.757c-0.418,0-0.758-0.34-0.758-0.758
		s0.339-0.758,0.758-0.758h20.077c0.418,0,0.757,0.34,0.757,0.758S43.251,31.245,42.833,31.245z M42.833,26.87H22.757
		c-0.418,0-0.758-0.34-0.758-0.758c0-0.417,0.339-0.757,0.758-0.757h20.077c0.418,0,0.757,0.34,0.757,0.757
		C43.591,26.529,43.251,26.87,42.833,26.87z M53.411,42.941c0,0.79-0.641,1.43-1.432,1.43h-3.684c-0.791,0-1.432-0.64-1.432-1.43
		v-9.643c0-0.79,0.641-1.431,1.432-1.431h3.684c0.791,0,1.432,0.642,1.432,1.431V42.941z M62.817,42.941
		c0,0.79-0.64,1.43-1.432,1.43h-3.685c-0.789,0-1.429-0.64-1.429-1.43V27.577c0-0.79,0.64-1.429,1.429-1.429h3.685
		c0.789,0,1.432,0.64,1.432,1.429V42.941z M72.226,42.941c0,0.79-0.642,1.43-1.431,1.43H67.11c-0.79,0-1.431-0.64-1.431-1.43V18.995
		c0-0.79,0.641-1.43,1.431-1.43h3.685c0.789,0,1.431,0.64,1.431,1.43V42.941z"/>
</g>
<g>
	<path fill="#FFFFFF" d="M36.68,40.343H11.605l-0.467,0.613c-2.183,2.865-3.335,6.287-3.335,9.892
		c0,8.485,6.502,15.476,14.784,16.262v18.98H14.18v3.111h19.712v-3.111H25.7V67.11c8.283-0.788,14.786-7.777,14.786-16.263
		c0-3.606-1.154-7.026-3.336-9.892L36.68,40.343z M13.174,43.456h21.938c1.111,1.643,1.828,3.485,2.115,5.428h-26.17
		C11.346,46.94,12.062,45.097,13.174,43.456z M24.144,64.077c-6.907,0-12.585-5.322-13.171-12.079h26.341
		C36.728,58.755,31.05,64.077,24.144,64.077z"/>
	<path fill="#FFFFFF" d="M58.343,34.823c-1.938-4.013-2.037-12.295-2.031-14.287c0.628-1.242,0.34-3.026,0.06-4.762
		c-0.09-0.556-0.184-1.133-0.189-1.432c-0.04-1.742-1.674-2.823-4.263-2.823l-0.204,0.004c-1.979,0.046-4.269,0.866-4.218,3.022
		c0.006,0.301-0.061,0.88-0.123,1.441c-0.2,1.745-0.403,3.541,0.282,4.751c0.099,1.989,0.388,10.269-1.362,14.369
		c-2.456,5.759-2.569,12.841-2.504,15.619c0.056,2.406,0.009,16.774-0.022,26.283c-0.019,5.511-0.027,8.399-0.021,8.711
		c0.053,2.263,3.711,3.482,5.196,3.482l7.479-0.175c1.59-0.036,5.166-1.483,5.112-3.725c-0.005-0.29,0.007-4.152,0.022-8.624
		c0.031-9.525,0.08-23.923,0.021-26.37C61.513,47.53,61.068,40.463,58.343,34.823z M58.445,76.667
		c-0.017,4.636-0.025,7.417-0.023,8.366c-0.409,0.357-1.518,0.869-2.071,0.883l-7.396,0.175h-0.016
		c-0.564,0-1.653-0.444-2.084-0.778c-0.001-1.07,0.01-4.457,0.022-8.295c0.032-9.524,0.079-23.918,0.021-26.366
		c-0.061-2.575,0.039-9.125,2.257-14.324c2.279-5.342,1.609-15.792,1.58-16.234l-0.041-0.604l-0.341-0.327
		c-0.151-0.517,0.024-2.065,0.11-2.825c0.063-0.559,0.12-1.059,0.138-1.494c0.284-0.104,0.785-0.198,1.18-0.209l0.136-0.002
		c0.453,0,0.908,0.071,1.171,0.152c0.04,0.435,0.12,0.931,0.209,1.485c0.121,0.756,0.371,2.294,0.243,2.818l-0.327,0.341
		l-0.012,0.606c-0.008,0.444-0.188,10.912,2.337,16.142c2.46,5.092,2.865,11.628,2.926,14.203
		C58.522,52.787,58.474,67.157,58.445,76.667z"/>
	<path fill="#FFFFFF" d="M77.158,59.887c1.407-0.466,2.597-1.56,3.325-3.123l10.422-22.338H60.298l10.42,22.338
		c0.729,1.565,1.92,2.658,3.328,3.126v26.201h-6.339v3.111h15.786v-3.111h-6.335V59.887z M86.019,37.539l-1.555,3.333v-0.528H66.492
		l-1.309-2.804H86.019z M67.944,43.456h15.312l-5.593,11.991c-0.462,0.991-1.234,1.583-2.064,1.583
		c-0.827,0-1.599-0.592-2.062-1.583L67.944,43.456z"/>
</g>
<g display="none">
	<rect x="7.123" y="53.876" display="inline" width="85.894" height="22.695"/>
	<circle display="inline" cx="22.148" cy="30.873" r="7.16"/>
	<circle display="inline" cx="50.068" cy="30.873" r="7.16"/>
	<circle display="inline" cx="77.991" cy="30.873" r="7.16"/>
	<path display="inline" d="M88.231,50.747c-0.786-6.688-5.071-11.799-10.24-11.799c-5.17,0-9.454,5.112-10.241,11.799h-7.44
		c-0.785-6.688-5.071-11.799-10.24-11.799s-9.455,5.112-10.239,11.799h-7.443c-0.785-6.688-5.069-11.799-10.239-11.799
		c-5.169,0-9.454,5.112-10.238,11.799H4.991v2.444h90.157v-2.444H88.231z"/>
</g>
<g display="none">
	<g display="inline">
		<path d="M49.555,25.902c4.024,0,7.283-3.257,7.283-7.273c0-4.022-3.259-7.279-7.283-7.279c-4.013,0-7.273,3.257-7.273,7.279
			C42.281,22.646,45.542,25.902,49.555,25.902z"/>
	</g>
	<g display="inline">
		<path d="M64.628,34.23l-1.912-4.656c-0.731-1.496-1.189-2.645-3.047-2.645H39.544c-1.857,0-2.315,1.149-3.047,2.645l-1.911,4.656
			H64.628z"/>
	</g>
</g>
<path display="none" d="M71.905,36.258H27.205c-0.609,0-1.104,0.494-1.104,1.104v3.914c0,0.61,0.494,1.104,1.104,1.104h2.982
	l3.289,47.993c0.04,0.578,0.521,1.028,1.101,1.028h29.954c0.58,0,1.062-0.449,1.103-1.028l3.289-47.993h2.981
	c0.611,0,1.104-0.495,1.104-1.104v-3.914C73.009,36.752,72.516,36.258,71.905,36.258z M63.502,89.193H35.609L32.4,42.38h34.311
	L63.502,89.193z M70.801,40.171H28.309v-1.705h42.492V40.171z"/>
</svg>
